<svg id="visual" viewBox="0 0 960 300" width="960" height="300" xmlns="http://www.w3.org/2000/svg" xmlns:xlink="http://www.w3.org/1999/xlink" version="1.1"><rect x="0" y="0" width="960" height="300" fill="#ffffff"></rect><path d="M0 36L22.8 41.2C45.7 46.3 91.3 56.7 137 56.7C182.7 56.7 228.3 46.3 274 36.7C319.7 27 365.3 18 411.2 13.5C457 9 503 9 548.8 16.5C594.7 24 640.3 39 686 44C731.7 49 777.3 44 823 42.8C868.7 41.7 914.3 44.3 937.2 45.7L960 47L960 0L937.2 0C914.3 0 868.7 0 823 0C777.3 0 731.7 0 686 0C640.3 0 594.7 0 548.8 0C503 0 457 0 411.2 0C365.3 0 319.7 0 274 0C228.3 0 182.7 0 137 0C91.3 0 45.7 0 22.8 0L0 0Z" fill="#202020" stroke-linecap="round" stroke-linejoin="miter"></path></svg>